REM DIRINDEX 1\3,1\2\4,1\2\5,1\2\6
REM DIRNAME cjc137,folder01,folder02,folder03,folder04,folder05
TITLE ""
FILE "041.mp3" MP3
  TRACK 01 AUDIO
    TITLE "4:cjc137_1678"
    INDEX 01 00:00:00
  TRACK 02 AUDIO
    TITLE "0:"
    INDEX 01 00:01:11
  TRACK 03 AUDIO
    TITLE "6:cjc137_1679"
    INDEX 01 00:01:21
  TRACK 04 AUDIO
    TITLE "0:"
    INDEX 01 00:02:16
  TRACK 05 AUDIO
    TITLE "5:cjc137_1680"
    INDEX 01 00:02:22
  TRACK 06 AUDIO
    TITLE "0:"
    INDEX 01 00:03:31
  TRACK 07 AUDIO
    TITLE "4:cjc137_1681"
    INDEX 01 00:04:40
  TRACK 08 AUDIO
    TITLE "0:"
    INDEX 01 00:05:50
  TRACK 09 AUDIO
    TITLE "6:cjc137_1682"
    INDEX 01 00:05:57
  TRACK 10 AUDIO
    TITLE "0:"
    INDEX 01 00:06:49
  TRACK 11 AUDIO
    TITLE "5:cjc137_1683"
    INDEX 01 00:06:53
  TRACK 12 AUDIO
    TITLE "0:"
    INDEX 01 00:07:64
  TRACK 13 AUDIO
    TITLE "4:cjc137_1684"
    INDEX 01 00:08:70
  TRACK 14 AUDIO
    TITLE "0:"
    INDEX 01 00:09:71
  TRACK 15 AUDIO
    TITLE "6:cjc137_1685"
    INDEX 01 00:10:02
  TRACK 16 AUDIO
    TITLE "0:"
    INDEX 01 00:11:25
  TRACK 17 AUDIO
    TITLE "5:cjc137_1686"
    INDEX 01 00:11:31
  TRACK 18 AUDIO
    TITLE "0:"
    INDEX 01 00:12:30
  TRACK 19 AUDIO
    TITLE "4:cjc137_1687"
    INDEX 01 00:13:37
  TRACK 20 AUDIO
    TITLE "0:"
    INDEX 01 00:14:74
  TRACK 21 AUDIO
    TITLE "6:cjc137_1688"
    INDEX 01 00:15:07
  TRACK 22 AUDIO
    TITLE "0:"
    INDEX 01 00:16:49
  TRACK 23 AUDIO
    TITLE "5:cjc137_1689"
    INDEX 01 00:16:53
  TRACK 24 AUDIO
    TITLE "0:"
    INDEX 01 00:18:17
  TRACK 25 AUDIO
    TITLE "4:cjc137_1690"
    INDEX 01 00:19:24
  TRACK 26 AUDIO
    TITLE "0:"
    INDEX 01 00:20:47
  TRACK 27 AUDIO
    TITLE "6:cjc137_1691"
    INDEX 01 00:20:57
  TRACK 28 AUDIO
    TITLE "0:"
    INDEX 01 00:22:09
  TRACK 29 AUDIO
    TITLE "5:cjc137_1692"
    INDEX 01 00:22:19
  TRACK 30 AUDIO
    TITLE "0:"
    INDEX 01 00:23:40
  TRACK 31 AUDIO
    TITLE "4:cjc137_1693"
    INDEX 01 00:24:47
  TRACK 32 AUDIO
    TITLE "0:"
    INDEX 01 00:26:07
  TRACK 33 AUDIO
    TITLE "6:cjc137_1694"
    INDEX 01 00:26:15
  TRACK 34 AUDIO
    TITLE "0:"
    INDEX 01 00:27:57
  TRACK 35 AUDIO
    TITLE "5:cjc137_1695"
    INDEX 01 00:27:63
  TRACK 36 AUDIO
    TITLE "0:"
    INDEX 01 00:29:23
  TRACK 37 AUDIO
    TITLE "4:cjc137_1696"
    INDEX 01 00:30:32
  TRACK 38 AUDIO
    TITLE "0:"
    INDEX 01 00:31:27
  TRACK 39 AUDIO
    TITLE "6:cjc137_1697"
    INDEX 01 00:31:41
  TRACK 40 AUDIO
    TITLE "0:"
    INDEX 01 00:32:45
  TRACK 41 AUDIO
    TITLE "5:cjc137_1698"
    INDEX 01 00:32:54
  TRACK 42 AUDIO
    TITLE "0:"
    INDEX 01 00:33:52
  TRACK 43 AUDIO
    TITLE "4:cjc137_1699"
    INDEX 01 00:34:65
  TRACK 44 AUDIO
    TITLE "0:"
    INDEX 01 00:35:59
  TRACK 45 AUDIO
    TITLE "6:cjc137_1700"
    INDEX 01 00:35:72
  TRACK 46 AUDIO
    TITLE "0:"
    INDEX 01 00:37:16
  TRACK 47 AUDIO
    TITLE "5:cjc137_1701"
    INDEX 01 00:37:24
  TRACK 48 AUDIO
    TITLE "0:"
    INDEX 01 00:38:20
  TRACK 49 AUDIO
    TITLE "4:cjc137_1702"
    INDEX 01 00:39:35
  TRACK 50 AUDIO
    TITLE "0:"
    INDEX 01 00:40:48
  TRACK 51 AUDIO
    TITLE "6:cjc137_1703"
    INDEX 01 00:40:54
  TRACK 52 AUDIO
    TITLE "0:"
    INDEX 01 00:41:69
  TRACK 53 AUDIO
    TITLE "5:cjc137_1704"
    INDEX 01 00:42:02
  TRACK 54 AUDIO
    TITLE "0:"
    INDEX 01 00:43:15
  TRACK 55 AUDIO
    TITLE "4:cjc137_1705"
    INDEX 01 00:44:22
  TRACK 56 AUDIO
    TITLE "0:"
    INDEX 01 00:45:35
  TRACK 57 AUDIO
    TITLE "6:cjc137_1706"
    INDEX 01 00:45:41
  TRACK 58 AUDIO
    TITLE "0:"
    INDEX 01 00:46:70
  TRACK 59 AUDIO
    TITLE "5:cjc137_1707"
    INDEX 01 00:47:03
  TRACK 60 AUDIO
    TITLE "0:"
    INDEX 01 00:48:16
  TRACK 61 AUDIO
    TITLE "4:cjc137_1708"
    INDEX 01 00:49:21
  TRACK 62 AUDIO
    TITLE "0:"
    INDEX 01 00:50:25
  TRACK 63 AUDIO
    TITLE "6:cjc137_1709"
    INDEX 01 00:50:33
  TRACK 64 AUDIO
    TITLE "0:"
    INDEX 01 00:51:46
  TRACK 65 AUDIO
    TITLE "5:cjc137_1710"
    INDEX 01 00:51:54
  TRACK 66 AUDIO
    TITLE "0:"
    INDEX 01 00:52:57
  TRACK 67 AUDIO
    TITLE "4:cjc137_1711"
    INDEX 01 00:53:64
  TRACK 68 AUDIO
    TITLE "0:"
    INDEX 01 00:54:64
  TRACK 69 AUDIO
    TITLE "6:cjc137_1712"
    INDEX 01 00:54:74
  TRACK 70 AUDIO
    TITLE "0:"
    INDEX 01 00:55:57
  TRACK 71 AUDIO
    TITLE "5:cjc137_1713"
    INDEX 01 00:55:63
  TRACK 72 AUDIO
    TITLE "0:"
    INDEX 01 00:56:61
  TRACK 73 AUDIO
    TITLE "4:cjc137_1714"
    INDEX 01 00:57:72
  TRACK 74 AUDIO
    TITLE "0:"
    INDEX 01 00:59:16
  TRACK 75 AUDIO
    TITLE "6:cjc137_1715"
    INDEX 01 00:59:22
  TRACK 76 AUDIO
    TITLE "0:"
    INDEX 01 01:00:17
  TRACK 77 AUDIO
    TITLE "5:cjc137_1716"
    INDEX 01 01:00:21
  TRACK 78 AUDIO
    TITLE "0:"
    INDEX 01 01:01:40
  TRACK 79 AUDIO
    TITLE "4:cjc137_1717"
    INDEX 01 01:02:46
  TRACK 80 AUDIO
    TITLE "0:"
    INDEX 01 01:03:47
  TRACK 81 AUDIO
    TITLE "6:cjc137_1718"
    INDEX 01 01:03:53
  TRACK 82 AUDIO
    TITLE "0:"
    INDEX 01 01:04:39
  TRACK 83 AUDIO
    TITLE "5:cjc137_1719"
    INDEX 01 01:04:48
  TRACK 84 AUDIO
    TITLE "0:"
    INDEX 01 01:05:48
